<svg width="21" height="18" viewBox="0 0 21 18" fill="none" xmlns="http://www.w3.org/2000/svg">
<path d="M7 12V8.25M10.5 12V6M14 12V10.5M15.75 3H5.25C4.78587 3 4.34075 3.15804 4.01256 3.43934C3.68437 3.72064 3.5 4.10218 3.5 4.5V13.5C3.5 13.8978 3.68437 14.2794 4.01256 14.5607C4.34075 14.842 4.78587 15 5.25 15H15.75C16.2141 15 16.6592 14.842 16.9874 14.5607C17.3156 14.2794 17.5 13.8978 17.5 13.5V4.5C17.5 4.10218 17.3156 3.72064 16.9874 3.43934C16.6592 3.15804 16.2141 3 15.75 3Z" stroke="#BCFFDB" stroke-width="1.66667" stroke-linecap="round" stroke-linejoin="round"/>
</svg>
