<svg width="18" height="17" viewBox="0 0 18 17" fill="none" xmlns="http://www.w3.org/2000/svg">
<path d="M11.3214 7.07143C12.1265 7.07143 12.8987 6.7516 13.468 6.18229C14.0373 5.61298 14.3571 4.84084 14.3571 4.03571C14.3571 3.23059 14.0373 2.45845 13.468 1.88914C12.8987 1.31983 12.1265 1 11.3214 1M14.3571 15.5714H16.7857V14.9133C16.7728 13.6839 16.3465 12.4947 15.5756 11.537C14.8047 10.5793 13.7339 9.90883 12.5357 9.63357M6.46429 7.07143C7.26941 7.07143 8.04155 6.7516 8.61086 6.18229C9.18017 5.61298 9.5 4.84084 9.5 4.03571C9.5 3.23059 9.18017 2.45845 8.61086 1.88914C8.04155 1.31983 7.26941 1 6.46429 1C5.65916 1 4.88702 1.31983 4.31771 1.88914C3.7484 2.45845 3.42857 3.23059 3.42857 4.03571C3.42857 4.84084 3.7484 5.61298 4.31771 6.18229C4.88702 6.7516 5.65916 7.07143 6.46429 7.07143ZM1 15.5714H11.9286V14.9133C11.9208 14.1792 11.7655 13.4541 11.4719 12.7813C11.1783 12.1084 10.7524 11.5014 10.2195 10.9964C9.68667 10.4914 9.05771 10.0987 8.37004 9.84162C7.68237 9.58455 6.95004 9.46838 6.21657 9.5C4.82049 9.56624 3.50256 10.1638 2.53273 11.1702C1.56289 12.1766 1.01454 13.5157 1 14.9133V15.5714Z" stroke="#BCFFDB" stroke-width="1.42857" stroke-linecap="round" stroke-linejoin="round"/>
</svg>
