<svg width="17" height="17" viewBox="0 0 17 17" fill="none" xmlns="http://www.w3.org/2000/svg">
<path fill-rule="evenodd" clip-rule="evenodd" d="M1.785 5.54137C1.41667 6.21216 1.41667 7.02321 1.41667 8.64387V9.72196C1.41667 12.4845 1.41667 13.8664 2.24683 14.7249C3.07629 15.5834 4.41221 15.5834 7.08333 15.5834H9.91667C12.5878 15.5834 13.9237 15.5834 14.7532 14.7249C15.5833 13.8664 15.5833 12.4852 15.5833 9.72196V8.64458C15.5833 7.02321 15.5833 6.21287 15.215 5.54137C14.8481 4.86916 14.1759 4.45266 12.8322 3.61825L11.4155 2.73921C9.99529 1.85733 9.28483 1.41675 8.5 1.41675C7.71517 1.41675 7.00542 1.85733 5.5845 2.73921L4.16783 3.61825C2.82413 4.45266 2.15263 4.86916 1.785 5.54137ZM7.96875 12.7501C7.96875 12.891 8.02472 13.0261 8.12435 13.1257C8.22398 13.2254 8.3591 13.2813 8.5 13.2813C8.6409 13.2813 8.77602 13.2254 8.87565 13.1257C8.97528 13.0261 9.03125 12.891 9.03125 12.7501V10.6251C9.03125 10.4842 8.97528 10.3491 8.87565 10.2494C8.77602 10.1498 8.6409 10.0938 8.5 10.0938C8.3591 10.0938 8.22398 10.1498 8.12435 10.2494C8.02472 10.3491 7.96875 10.4842 7.96875 10.6251V12.7501Z" fill="#BCFFDB"/>
</svg>
