<svg width="42" height="70" viewBox="0 0 42 70" fill="none" xmlns="http://www.w3.org/2000/svg">
<path d="M0 34.9802C0 35.6653 0.123772 36.2978 0.371316 36.8775C0.646365 37.4572 1.05894 38.0105 1.60904 38.5375L33.7485 68.6561C34.6837 69.552 35.8114 70 37.1316 70C38.0393 70 38.8507 69.7892 39.5658 69.3676C40.3084 68.9723 40.8998 68.419 41.3399 67.7075C41.78 67.0224 42 66.2582 42 65.415C42 64.1502 41.4912 63.0303 40.4735 62.0553L11.5108 34.9802L40.4735 7.90514C41.4912 6.93017 42 5.82345 42 4.58498C42 3.71541 41.78 2.93808 41.3399 2.25296C40.8998 1.56785 40.3084 1.02767 39.5658 0.632411C38.8507 0.210804 38.0393 0 37.1316 0C35.8114 0 34.6837 0.434783 33.7485 1.30435L1.60904 31.4229C1.05894 31.9499 0.646365 32.5033 0.371316 33.083C0.123772 33.6627 0 34.2951 0 34.9802Z" fill="#BCFFDB"/>
</svg>
