<svg width="38" height="38" viewBox="0 0 38 38" fill="none" xmlns="http://www.w3.org/2000/svg">
<rect x="0.5" y="0.5" width="37" height="37" rx="7.5" stroke="#313234"/>
<path d="M20.75 22V23.5C20.75 23.8978 20.5964 24.2794 20.3229 24.5607C20.0494 24.842 19.6784 25 19.2917 25H13.4583C13.0716 25 12.7006 24.842 12.4271 24.5607C12.1536 24.2794 12 23.8978 12 23.5V14.5C12 14.1022 12.1536 13.7206 12.4271 13.4393C12.7006 13.158 13.0716 13 13.4583 13H19C19.8054 13 20.75 13.6716 20.75 14.5V16M23.0833 22L26 19L23.0833 16M16.0833 19H25.4167" stroke="#BCFFDB" stroke-width="1.5625" stroke-linecap="round" stroke-linejoin="round"/>
</svg>
