<svg width="41" height="39" viewBox="0 0 41 39" fill="none" xmlns="http://www.w3.org/2000/svg">
<rect x="0.5" y="0.5" width="39.7077" height="37.3228" rx="7.5" stroke="#313234"/>
<path d="M20.3485 9.00001C22.3762 8.99734 24.3253 9.78422 25.7828 11.1939C27.2404 12.6036 28.0918 14.5254 28.1568 16.5521L28.161 16.8125V21.0802L29.5985 24.3677C29.6852 24.5658 29.7212 24.7824 29.7032 24.9979C29.6852 25.2134 29.6138 25.421 29.4954 25.6019C29.377 25.7829 29.2154 25.9315 29.0251 26.0342C28.8349 26.137 28.622 26.1908 28.4058 26.1906L23.4735 26.1938C23.4745 27.0073 23.1583 27.7892 22.592 28.3732C22.0256 28.9573 21.2539 29.2975 20.4407 29.3215C19.6275 29.3455 18.837 29.0514 18.2372 28.5018C17.6374 27.9522 17.2756 27.1903 17.2287 26.3781L17.2235 26.1906H12.3016C12.0858 26.1904 11.8734 26.1365 11.6835 26.0339C11.4937 25.9313 11.3323 25.7831 11.2138 25.6027C11.0954 25.4223 11.0236 25.2153 11.0049 25.0003C10.9862 24.7853 11.0212 24.569 11.1068 24.3708L12.536 21.0813V16.8125C12.536 12.4844 16.0276 9.00001 20.3485 9.00001ZM21.911 26.1917L18.786 26.1938C18.7859 26.5951 18.9403 26.9811 19.2171 27.2717C19.4939 27.5623 19.872 27.7353 20.2729 27.7547C20.6737 27.7741 21.0667 27.6385 21.3704 27.376C21.674 27.1135 21.8649 26.7443 21.9037 26.3448L21.911 26.1917ZM20.3485 10.5625C16.8901 10.5625 14.0985 13.3479 14.0985 16.8125V21.4063L12.6985 24.6292H28.0078L26.5985 21.4073V16.826L26.5953 16.5917C26.5412 14.9721 25.859 13.4372 24.693 12.3119C23.527 11.1866 21.9689 10.5592 20.3485 10.5625Z" fill="#F3C9C4"/>
</svg>
