<svg width="42" height="70" viewBox="0 0 42 70" fill="none" xmlns="http://www.w3.org/2000/svg">
<path d="M42 34.9802C42 35.6653 41.8762 36.2978 41.6287 36.8775C41.3536 37.4572 40.9411 38.0105 40.391 38.5375L8.25148 68.6561C7.31631 69.552 6.18861 70 4.86837 70C3.96071 70 3.14931 69.7892 2.43419 69.3676C1.69155 68.9723 1.1002 68.419 0.660118 67.7075C0.22004 67.0224 0 66.2582 0 65.415C0 64.1502 0.508842 63.0303 1.52652 62.0553L30.4892 34.9802L1.52652 7.90514C0.508842 6.93017 0 5.82345 0 4.58498C0 3.71541 0.22004 2.93808 0.660118 2.25296C1.1002 1.56785 1.69155 1.02767 2.43419 0.632411C3.14931 0.210804 3.96071 0 4.86837 0C6.18861 0 7.31631 0.434783 8.25148 1.30435L40.391 31.4229C40.9411 31.9499 41.3536 32.5033 41.6287 33.083C41.8762 33.6627 42 34.2951 42 34.9802Z" fill="#BCFFDB"/>
</svg>
