<svg width="37" height="37" viewBox="0 0 37 37" fill="none" xmlns="http://www.w3.org/2000/svg">
<rect x="0.5" y="0.5" width="36" height="36" rx="7.5" stroke="#313234"/>
<path d="M20.0238 11C20.1402 11 20.2535 11.036 20.3476 11.1028C20.4416 11.1696 20.5115 11.2638 20.5471 11.3718L21.1518 13.2029C21.4057 13.3239 21.6487 13.46 21.8807 13.6132L23.8112 13.2082C23.925 13.1845 24.0436 13.1967 24.1499 13.2429C24.2562 13.2891 24.3447 13.367 24.4027 13.4654L25.9265 16.0357C25.9847 16.134 26.0093 16.2478 25.9969 16.3606C25.9844 16.4735 25.9355 16.5796 25.8572 16.6636L24.5324 18.0886C24.5517 18.3618 24.5517 18.636 24.5324 18.9093L25.8572 20.3364C25.9355 20.4204 25.9844 20.5265 25.9969 20.6394C26.0093 20.7522 25.9847 20.866 25.9265 20.9643L24.4027 23.5357C24.3446 23.6339 24.256 23.7116 24.1497 23.7576C24.0434 23.8036 23.9249 23.8156 23.8112 23.7918L21.8807 23.3868C21.6498 23.5389 21.4057 23.6761 21.1529 23.7971L20.5471 25.6282C20.5115 25.7362 20.4416 25.8304 20.3476 25.8972C20.2535 25.964 20.1402 26 20.0238 26H16.9762C16.8598 26 16.7465 25.964 16.6524 25.8972C16.5584 25.8304 16.4885 25.7362 16.4529 25.6282L15.8493 23.7982C15.5961 23.6775 15.3518 23.5397 15.1182 23.3857L13.1888 23.7918C13.075 23.8155 12.9564 23.8033 12.8501 23.7571C12.7438 23.7109 12.6553 23.633 12.5973 23.5346L11.0735 20.9643C11.0153 20.866 10.9907 20.7522 11.0032 20.6394C11.0156 20.5265 11.0645 20.4204 11.1428 20.3364L12.4676 18.9093C12.4484 18.6367 12.4484 18.3633 12.4676 18.0907L11.1428 16.6636C11.0645 16.5796 11.0156 16.4735 11.0032 16.3606C10.9907 16.2478 11.0153 16.134 11.0735 16.0357L12.5973 13.4643C12.6554 13.3661 12.744 13.2884 12.8503 13.2424C12.9566 13.1964 13.0751 13.1844 13.1888 13.2082L15.1182 13.6143C15.3513 13.4611 15.5954 13.3229 15.8493 13.2018L16.454 11.3718C16.4895 11.2642 16.559 11.1702 16.6526 11.1034C16.7462 11.0367 16.8591 11.0005 16.9751 11H20.0227H20.0238ZM19.6214 12.0714H17.3786L16.7541 13.9646L16.3331 14.165C16.1261 14.2637 15.9263 14.3761 15.735 14.5014L15.3458 14.7586L13.3493 14.3386L12.2279 16.2329L13.5967 17.7093L13.5637 18.1636C13.5479 18.3876 13.5479 18.6124 13.5637 18.8364L13.5967 19.2907L12.2257 20.7671L13.3482 22.6614L15.3447 22.2425L15.7339 22.4986C15.9252 22.6239 16.125 22.7363 16.332 22.835L16.753 23.0354L17.3786 24.9286H19.6236L20.2502 23.0343L20.6702 22.835C20.877 22.7365 21.0765 22.6241 21.2672 22.4986L21.6553 22.2425L23.6529 22.6614L24.7743 20.7671L23.4044 19.2907L23.4374 18.8364C23.4533 18.6121 23.4533 18.3869 23.4374 18.1625L23.4044 17.7082L24.7754 16.2329L23.6529 14.3386L21.6553 14.7564L21.2672 14.5014C21.0765 14.3759 20.877 14.2635 20.6702 14.165L20.2502 13.9657L19.6225 12.0714H19.6214ZM18.5 15.2857C19.3747 15.2857 20.2137 15.6244 20.8322 16.2272C21.4507 16.83 21.7982 17.6475 21.7982 18.5C21.7982 19.3525 21.4507 20.17 20.8322 20.7728C20.2137 21.3756 19.3747 21.7143 18.5 21.7143C17.6253 21.7143 16.7863 21.3756 16.1678 20.7728C15.5493 20.17 15.2018 19.3525 15.2018 18.5C15.2018 17.6475 15.5493 16.83 16.1678 16.2272C16.7863 15.6244 17.6253 15.2857 18.5 15.2857ZM18.5 16.3571C17.9168 16.3571 17.3576 16.5829 16.9452 16.9848C16.5329 17.3866 16.3012 17.9317 16.3012 18.5C16.3012 19.0683 16.5329 19.6134 16.9452 20.0152C17.3576 20.4171 17.9168 20.6429 18.5 20.6429C19.0832 20.6429 19.6424 20.4171 20.0548 20.0152C20.4671 19.6134 20.6988 19.0683 20.6988 18.5C20.6988 17.9317 20.4671 17.3866 20.0548 16.9848C19.6424 16.5829 19.0832 16.3571 18.5 16.3571Z" fill="#BCFFDB"/>
</svg>
