<svg fill="none" height="24" viewBox="0 0 24 24" width="24" xmlns="http://www.w3.org/2000/svg"><g stroke="#292d32" stroke-linecap="round" stroke-linejoin="round" stroke-width="1.5"><path d="m12 22c5.52 0 10-4.48 10-10s-4.48-10-10-10-10 4.48-10 10 4.48 10 10 10z"/><path d="m12 16c2.21 0 4-1.79 4-4s-1.79-4-4-4-4 1.79-4 4 1.79 4 4 4z"/><path d="m21.17 8c-3.02-.66-6.15-.66-9.17 0"/><path d="m3.95001 6.06006.02.06c1.01 2.89 2.56 5.57004 4.57 7.88004"/><path d="m10.88 21.94c2.06-2.27 3.61-4.95 4.55-7.86l.03-.08"/></g></svg>