<svg fill="none" height="15" viewBox="0 0 15 15" width="15" xmlns="http://www.w3.org/2000/svg"><path d="m4.87473 3.78925c-2.36236 0-4.348482 1.61372-4.37473 3.61188.025868-1.83929.77472-3.59447 2.0846-4.88593s3.07549-2.015382 4.91496-2.0152c2.71994 0 5.22124 1.30367 6.38004 3.57032.1826.36092.6343 1.17571.6201 2.40118-.0012.58524-.1554 1.15999-.4473 1.66724s-.7114.92936-1.2168 1.22446c-.5009.29752-1.0726.45521-1.6553.45661-.0038 0-1.48627.07218-2.27262-.47466-.16515-.11538-.25811-.25264-.25811-.39537 0-.1728.13616-.25209.18046-.30951.2767-.35982.42653-.7951.42653-1.08876 0-.29365-.06015-1.03079-.3981-1.61427m-3.98373-2.14799c.19139 0 1.28289.01859 2.29673.55067.89354.46919 1.36163 1.03571 1.687 1.59732m-3.98373-2.14799c-2.18476 0-4.047732 1.38027-4.336253 3.16833-.021421.15148-.032454.30247-.032454.45189-.009469 1.05729.216753 2.1034.662227 3.06233.72802 1.5533 2.00114 2.7852 3.57759 3.4618 1.57645.6765 3.34646.7505 4.9739.208-.56983.1797-1.17185.2336-1.76455.1581m.90327-8.36246c.29141.50312.37626 1.12055.39411 1.46933-.02024-.34025-.13987-.66775-.34489-.94149-.16338-.21892-.37524-.39702-.61897-.52035-.24373-.12334-.51271-.18856-.78586-.19055-.37281-.00683-.65663.1274-.82958.20919-.00692.00327-.01365.00646-.02021.00955-.57764.28454-1.08602.69202-1.4895 1.19385m2.79163 7.13293c-.59269-.0755-1.16195-.2787-1.66851-.5955l-.00493-.0022c-.48774-.3028-.91044-.6994-1.24351-1.167-.37962-.5201-.64086-1.117-.76538-1.7487-.12452-.6318-.10932-1.28315.04455-1.90841.15386-.62526.44267-1.20929.84615-1.71112m2.79163 7.13293c.42514.0542.855.0415 1.27442-.0362.17926-.0381.34718-.0814.48349-.1244l.07164-.0241c1.50666-.5209 2.79116-1.5392 3.64196-2.8873.0261-.0411.0377-.0896.0331-.138-.0047-.0485-.0253-.0939-.0587-.1293-.0333-.0354-.0775-.0586-.1256-.0661-.048-.0074-.0972.0014-.1397.025-.1867.0976-.3792.1836-.5764.2575-.6278.2349-1.2928.3546-1.9632.3533-2.5876 0-4.84168-1.77998-4.84168-4.06413.00331-.30636.08833-.60628.24627-.86881.15742-.26167.3816-.47673.64953-.62316-.57654.28448-1.0839.69171-1.48676 1.19277m4.09157.3009c.00019.00579.00036.01148.0005.01707m0 0c0-.00007-.0001.00042 0 0z" stroke="#000"/></svg>