<svg fill="none" height="16" viewBox="0 0 16 16" width="16" xmlns="http://www.w3.org/2000/svg"><path d="m7.99998 1.33334c3.68202 0 6.66662 2.98467 6.66662 6.66667 0 3.68199-2.9846 6.66669-6.66662 6.66669-3.682 0-6.66667-2.9847-6.66667-6.66669 0-.976.20934-1.90267.58667-2.73733.31067-.626.822-1.24934 1.23333-1.46267-.43533.85533-.64866 1.69333-.69333 2.25533.30267-1 .87667-1.838 1.68-2.42933 1.37733-1.01267 3.232-1.058 3.97067-.41333-1.37067.47133-2.864 2.36533-2.53534 4.584.05334.36666.16334.72266.326 1.05466-.256-.67333-.27866-1.622.13467-2.23866.46133-.68667 1.11867-.832 1.47067-.75734-.13867-.02933-.44534.55734-.49067.66067-.11533.26267-.17267.54667-.16733.83333.00991.59892.25683 1.16948.68666 1.58667 1.28134 1.24729 3.34869.75667 4.27469-.668.6353-.98067.7126-2.64533-.1034-3.968-.2036-.32207-.4463-.61766-.7226-.88-1.23335-1.17733-2.98669-1.71333-4.65469-1.47-.73733.118-1.36466.33067-1.88266.63733.72333-.722 2.16-1.254 3.55333-1.254zm-3.41667 3.80334c-1.502.52066-2.334 2.11333-1.71933 4.30666.30749 1.09216.95513 2.05796 1.84887 2.75696.89373.6991 1.98703 1.095 3.12113 1.1304l.166.0026c1.35729.0001 2.66352-.5173 3.65262-1.4468s1.5866-2.20114 1.6707-3.55582l.006-.14134c-.0867.23267-.1887.44934-.3087.65334l-.0933.15133c-1.4027 2.15929-4.45399 2.71669-6.31999.89867-.25383-.24627-.46994-.52864-.64133-.838l-.07067-.134c-1.15733-.258-1.72266-.884-1.69533-1.878.018-.66067.15333-1.30667.38333-1.90667z" fill="#001018"/></svg>